<svg width="20" height="21" viewBox="0 0 20 21" fill="none" xmlns="http://www.w3.org/2000/svg">
<g clip-path="url(#clip0_3_1124)">
<path d="M14.1667 0.5C14.6269 0.5 15 0.873096 15 1.33333V3C15 3.46024 14.6269 3.83333 14.1667 3.83333C13.7064 3.83333 13.3333 3.46024 13.3333 3V1.33333C13.3333 0.873096 13.7064 0.5 14.1667 0.5Z" fill="#777E91"/>
<path d="M14.1667 10.5C14.6269 10.5 15 10.8731 15 11.3333V16.3333C15 16.7936 14.6269 17.1667 14.1667 17.1667C13.7064 17.1667 13.3333 16.7936 13.3333 16.3333V11.3333C13.3333 10.8731 13.7064 10.5 14.1667 10.5Z" fill="#777E91"/>
<path d="M5.83333 3.83333C6.29357 3.83333 6.66667 4.20643 6.66667 4.66667V11.3333C6.66667 11.7936 6.29357 12.1667 5.83333 12.1667C5.3731 12.1667 5 11.7936 5 11.3333V4.66667C5 4.20643 5.3731 3.83333 5.83333 3.83333Z" fill="#777E91"/>
<path d="M5.83333 15.5C6.29357 15.5 6.66667 15.8731 6.66667 16.3333V19.6667C6.66667 20.1269 6.29357 20.5 5.83333 20.5C5.3731 20.5 5 20.1269 5 19.6667V16.3333C5 15.8731 5.3731 15.5 5.83333 15.5Z" fill="#777E91"/>
<path fill-rule="evenodd" clip-rule="evenodd" d="M11.6667 4.66666C11.6667 3.28594 12.7859 2.16666 14.1667 2.16666C15.5474 2.16666 16.6667 3.28594 16.6667 4.66666V9.66666C16.6667 11.0474 15.5474 12.1667 14.1667 12.1667C12.7859 12.1667 11.6667 11.0474 11.6667 9.66666V4.66666ZM15 4.66666V9.66666C15 10.1269 14.6269 10.5 14.1667 10.5C13.7064 10.5 13.3333 10.1269 13.3333 9.66666V4.66666C13.3333 4.20642 13.7064 3.83332 14.1667 3.83332C14.6269 3.83332 15 4.20642 15 4.66666Z" fill="#777E91"/>
<path fill-rule="evenodd" clip-rule="evenodd" d="M3.33333 13C3.33333 11.6193 4.45262 10.5 5.83333 10.5C7.21404 10.5 8.33333 11.6193 8.33333 13V14.6667C8.33333 16.0474 7.21404 17.1667 5.83333 17.1667C4.45262 17.1667 3.33333 16.0474 3.33333 14.6667V13ZM6.66666 13V14.6667C6.66666 15.1269 6.29357 15.5 5.83333 15.5C5.37309 15.5 4.99999 15.1269 4.99999 14.6667V13C4.99999 12.5398 5.37309 12.1667 5.83333 12.1667C6.29357 12.1667 6.66666 12.5398 6.66666 13Z" fill="#777E91"/>
</g>
<defs>
<clipPath id="clip0_3_1124">
<rect width="20" height="20" fill="white" transform="translate(0 0.5)"/>
</clipPath>
</defs>
</svg>
