<svg width="14" height="15" viewBox="0 0 14 15" fill="none" xmlns="http://www.w3.org/2000/svg">
<path d="M7 0.833313C6.63181 0.833313 6.33334 1.13179 6.33334 1.49998V3.49998C6.33334 3.86817 6.63181 4.16665 7 4.16665C7.36819 4.16665 7.66667 3.86817 7.66667 3.49998V1.49998C7.66667 1.13179 7.36819 0.833313 7 0.833313Z" fill="#FCFCFD"/>
<path d="M7 10.8333C6.63181 10.8333 6.33334 11.1318 6.33334 11.5V13.5C6.33334 13.8682 6.63181 14.1666 7 14.1666C7.36819 14.1666 7.66667 13.8682 7.66667 13.5V11.5C7.66667 11.1318 7.36819 10.8333 7 10.8333Z" fill="#FCFCFD"/>
<path d="M13 6.83331C13.3682 6.83331 13.6667 7.13179 13.6667 7.49998C13.6667 7.86817 13.3682 8.16665 13 8.16665H11C10.6318 8.16665 10.3333 7.86817 10.3333 7.49998C10.3333 7.13179 10.6318 6.83331 11 6.83331H13Z" fill="#FCFCFD"/>
<path d="M3.66667 7.49998C3.66667 7.13179 3.36819 6.83331 3 6.83331H1C0.631813 6.83331 0.333336 7.13179 0.333336 7.49998C0.333336 7.86817 0.631813 8.16665 1 8.16665H3C3.36819 8.16665 3.66667 7.86817 3.66667 7.49998Z" fill="#FCFCFD"/>
<path d="M10.7713 2.786C11.0316 2.52565 11.4537 2.52565 11.7141 2.786C11.9744 3.04635 11.9744 3.46846 11.7141 3.72881L10.2999 5.14302C10.0395 5.40337 9.61741 5.40337 9.35706 5.14302C9.09671 4.88267 9.09671 4.46056 9.35706 4.20021L10.7713 2.786Z" fill="#FCFCFD"/>
<path d="M4.64296 9.85696C4.38261 9.59661 3.9605 9.59661 3.70015 9.85696L2.28593 11.2712C2.02558 11.5315 2.02558 11.9536 2.28593 12.214C2.54628 12.4743 2.96839 12.4743 3.22874 12.214L4.64296 10.7998C4.90331 10.5394 4.90331 10.1173 4.64296 9.85696Z" fill="#FCFCFD"/>
<path d="M11.7141 11.2713C11.9744 11.5316 11.9744 11.9537 11.7141 12.2141C11.4537 12.4744 11.0316 12.4744 10.7713 12.2141L9.35704 10.7998C9.09669 10.5395 9.09669 10.1174 9.35704 9.85704C9.61739 9.59669 10.0395 9.59669 10.2999 9.85704L11.7141 11.2713Z" fill="#FCFCFD"/>
<path d="M4.64302 5.14293C4.90337 4.88258 4.90337 4.46047 4.64302 4.20012L3.22881 2.78591C2.96846 2.52556 2.54635 2.52556 2.286 2.78591C2.02565 3.04626 2.02565 3.46837 2.286 3.72872L3.70021 5.14293C3.96056 5.40328 4.38267 5.40328 4.64302 5.14293Z" fill="#FCFCFD"/>
</svg>
