<svg width="16" height="17" viewBox="0 0 16 17" fill="none" xmlns="http://www.w3.org/2000/svg">
<path d="M13.3333 9.16665C13.7015 9.16665 14 8.86817 14 8.49998C14 8.13179 13.7015 7.83331 13.3333 7.83331C12.9651 7.83331 12.6667 8.13179 12.6667 8.49998C12.6667 8.86817 12.9651 9.16665 13.3333 9.16665Z" fill="#FCFCFD"/>
<path d="M13.3333 11.8333C13.7015 11.8333 14 11.5348 14 11.1666C14 10.7985 13.7015 10.5 13.3333 10.5C12.9651 10.5 12.6667 10.7985 12.6667 11.1666C12.6667 11.5348 12.9651 11.8333 13.3333 11.8333Z" fill="#FCFCFD"/>
<path d="M13.3333 14.5C13.7015 14.5 14 14.2015 14 13.8333C14 13.4651 13.7015 13.1666 13.3333 13.1666C12.9651 13.1666 12.6667 13.4651 12.6667 13.8333C12.6667 14.2015 12.9651 14.5 13.3333 14.5Z" fill="#FCFCFD"/>
<path d="M8 11.8333C8.36819 11.8333 8.66667 11.5348 8.66667 11.1666C8.66667 10.7985 8.36819 10.5 8 10.5C7.63181 10.5 7.33333 10.7985 7.33333 11.1666C7.33333 11.5348 7.63181 11.8333 8 11.8333Z" fill="#FCFCFD"/>
<path d="M8 14.5C8.36819 14.5 8.66667 14.2015 8.66667 13.8333C8.66667 13.4651 8.36819 13.1666 8 13.1666C7.63181 13.1666 7.33333 13.4651 7.33333 13.8333C7.33333 14.2015 7.63181 14.5 8 14.5Z" fill="#FCFCFD"/>
<path d="M2.66667 14.5C3.03486 14.5 3.33333 14.2015 3.33333 13.8333C3.33333 13.4651 3.03486 13.1666 2.66667 13.1666C2.29848 13.1666 2 13.4651 2 13.8333C2 14.2015 2.29848 14.5 2.66667 14.5Z" fill="#FCFCFD"/>
<path fill-rule="evenodd" clip-rule="evenodd" d="M13.3333 6.5C12.2288 6.5 11.3333 5.60457 11.3333 4.5C11.3333 3.39543 12.2288 2.5 13.3333 2.5C14.4379 2.5 15.3333 3.39543 15.3333 4.5C15.3333 5.60457 14.4379 6.5 13.3333 6.5ZM13.3333 5.16667C12.9651 5.16667 12.6667 4.86819 12.6667 4.5C12.6667 4.13181 12.9651 3.83333 13.3333 3.83333C13.7015 3.83333 14 4.13181 14 4.5C14 4.86819 13.7015 5.16667 13.3333 5.16667Z" fill="#FCFCFD"/>
<path fill-rule="evenodd" clip-rule="evenodd" d="M8 9.16667C6.89543 9.16667 6 8.27124 6 7.16667C6 6.0621 6.89543 5.16667 8 5.16667C9.10457 5.16667 10 6.0621 10 7.16667C10 8.27124 9.10457 9.16667 8 9.16667ZM8 7.83333C7.63181 7.83333 7.33333 7.53486 7.33333 7.16667C7.33333 6.79848 7.63181 6.5 8 6.5C8.36819 6.5 8.66667 6.79848 8.66667 7.16667C8.66667 7.53486 8.36819 7.83333 8 7.83333Z" fill="#FCFCFD"/>
<path fill-rule="evenodd" clip-rule="evenodd" d="M0.666667 9.83333C0.666667 10.9379 1.5621 11.8333 2.66667 11.8333C3.77124 11.8333 4.66667 10.9379 4.66667 9.83333C4.66667 8.72876 3.77124 7.83333 2.66667 7.83333C1.5621 7.83333 0.666667 8.72876 0.666667 9.83333ZM2 9.83333C2 10.2015 2.29848 10.5 2.66667 10.5C3.03486 10.5 3.33333 10.2015 3.33333 9.83333C3.33333 9.46514 3.03486 9.16667 2.66667 9.16667C2.29848 9.16667 2 9.46514 2 9.83333Z" fill="#FCFCFD"/>
</svg>
